<svg width="40" height="40" viewBox="0 0 40 40" fill="none" xmlns="http://www.w3.org/2000/svg">
    <path fill-rule="evenodd" clip-rule="evenodd" d="M17.5862 16.5517H39.0187C39.416 16.5517 39.7547 16.8443 39.8107 17.2384C39.9361 18.1416 40 19.0632 40 20C40 31.0384 31.0374 40 20 40C18.9819 40 17.9811 39.9237 17.0035 39.7763C16.7438 39.7363 16.552 39.5125 16.552 39.2496C16.5518 37.9192 16.5517 34.0299 16.5517 32.6024C16.5517 32.3077 16.7904 32.0691 17.0851 32.0691C18.4379 32.0691 21.8966 32.0691 21.8966 32.0691C26.2091 32.0691 29.751 28.7704 30.1368 24.5587C30.0187 24.1176 29.6163 23.7931 29.1379 23.7931H17.5862C17.0152 23.7931 16.5523 23.3304 16.5517 22.7587V17.5861C16.5517 17.0149 17.015 16.5517 17.5862 16.5517ZM16.2667 8.2808C11.828 8.43093 8.27574 12.0765 8.27574 16.5517V35.1224C8.27601 35.3267 8.15921 35.5131 7.97521 35.6024C7.79147 35.6915 7.57282 35.6677 7.41228 35.5413C2.89201 31.8712 0 26.2707 0 20C0 8.9616 8.96161 0 20 0C26.2704 0 31.8694 2.892 35.5387 7.41387C35.6641 7.5736 35.688 7.7912 35.6 7.97413C35.512 8.1568 35.3254 8.27307 35.1227 8.27307C31.0134 8.27573 16.5517 8.27573 16.5517 8.27573C16.4752 8.27573 16.3992 8.2768 16.3232 8.27894L16.2667 8.2808Z" fill="url(#paint0_radial_155_738)"/>
    <defs>
        <radialGradient id="paint0_radial_155_738" cx="0" cy="0" r="1" gradientUnits="userSpaceOnUse" gradientTransform="translate(17.5 17.5) rotate(45) scale(25.4558)">
            <stop offset="0.697917" stop-color="#0066FF"/>
            <stop offset="1" stop-color="#5CF5A9"/>
        </radialGradient>
    </defs>
</svg>
