<svg width="146" height="40" viewBox="0 0 146 40" fill="none" xmlns="http://www.w3.org/2000/svg">
    <path fill-rule="evenodd" clip-rule="evenodd" d="M17.5862 16.5517H39.0187C39.416 16.5517 39.7547 16.8443 39.8107 17.2384C39.9361 18.1416 40 19.0632 40 20C40 31.0384 31.0374 40 20 40C18.9819 40 17.9811 39.9237 17.0035 39.7763C16.7438 39.7363 16.552 39.5125 16.552 39.2496C16.5518 37.9192 16.5517 34.0299 16.5517 32.6024C16.5517 32.3077 16.7904 32.0691 17.0851 32.0691C18.4379 32.0691 21.8966 32.0691 21.8966 32.0691C26.2091 32.0691 29.751 28.7704 30.1368 24.5587C30.0187 24.1176 29.6163 23.7931 29.1379 23.7931H17.5862C17.0152 23.7931 16.5523 23.3304 16.5517 22.7587V17.5861C16.5517 17.0149 17.015 16.5517 17.5862 16.5517ZM16.2667 8.2808C11.828 8.43093 8.27574 12.0765 8.27574 16.5517V35.1224C8.27601 35.3267 8.15921 35.5131 7.97521 35.6024C7.79147 35.6915 7.57282 35.6677 7.41228 35.5413C2.89201 31.8712 0 26.2707 0 20C0 8.9616 8.96161 0 20 0C26.2704 0 31.8694 2.892 35.5387 7.41387C35.6641 7.5736 35.688 7.7912 35.6 7.97413C35.512 8.1568 35.3254 8.27307 35.1227 8.27307C31.0134 8.27573 16.5517 8.27573 16.5517 8.27573C16.4752 8.27573 16.3992 8.2768 16.3232 8.27894L16.2667 8.2808Z" fill="url(#paint0_radial_57_3218)"/>
    <path d="M62.9 7.6C62.9 7.66667 62.8734 7.72667 62.82 7.78C62.78 7.82 62.7267 7.84 62.66 7.84H56.4C56.3334 7.84 56.3 7.87333 56.3 7.94V10.4C56.3 10.4667 56.3334 10.5 56.4 10.5H60.42C60.4867 10.5 60.54 10.5267 60.58 10.58C60.6334 10.62 60.66 10.6733 60.66 10.74V13.08C60.66 13.1467 60.6334 13.2067 60.58 13.26C60.54 13.3 60.4867 13.32 60.42 13.32H56.4C56.3334 13.32 56.3 13.3533 56.3 13.42V18.76C56.3 18.8267 56.2734 18.8867 56.22 18.94C56.18 18.98 56.1267 19 56.06 19H53.22C53.1534 19 53.0934 18.98 53.04 18.94C53 18.8867 52.98 18.8267 52.98 18.76V5.24C52.98 5.17333 53 5.12 53.04 5.08C53.0934 5.02667 53.1534 5 53.22 5H62.66C62.7267 5 62.78 5.02667 62.82 5.08C62.8734 5.12 62.9 5.17333 62.9 5.24V7.6Z" fill="#14171A"/>
    <path d="M71.095 19C70.9484 19 70.855 18.9333 70.815 18.8L70.295 17.02C70.2684 16.9667 70.235 16.94 70.195 16.94H65.635C65.595 16.94 65.5617 16.9667 65.535 17.02L65.015 18.8C64.975 18.9333 64.8817 19 64.735 19H61.675C61.595 19 61.535 18.98 61.495 18.94C61.455 18.8867 61.4484 18.8133 61.475 18.72L65.755 5.2C65.795 5.06667 65.8817 5 66.015 5H69.795C69.9284 5 70.015 5.06667 70.055 5.2L74.355 18.72C74.3684 18.7467 74.375 18.78 74.375 18.82C74.375 18.94 74.3017 19 74.155 19H71.095ZM66.335 14.26C66.3217 14.34 66.3484 14.38 66.415 14.38H69.395C69.475 14.38 69.5017 14.34 69.475 14.26L67.955 9.12C67.9417 9.06667 67.9217 9.04667 67.895 9.06C67.8684 9.06 67.8484 9.08 67.835 9.12L66.335 14.26Z" fill="#14171A"/>
    <path d="M75.6818 19C75.6151 19 75.5551 18.98 75.5018 18.94C75.4618 18.8867 75.4418 18.8267 75.4418 18.76V5.24C75.4418 5.17333 75.4618 5.12 75.5018 5.08C75.5551 5.02667 75.6151 5 75.6818 5H78.5218C78.5884 5 78.6418 5.02667 78.6818 5.08C78.7351 5.12 78.7618 5.17333 78.7618 5.24V18.76C78.7618 18.8267 78.7351 18.8867 78.6818 18.94C78.6418 18.98 78.5884 19 78.5218 19H75.6818Z" fill="#14171A"/>
    <path d="M87.8347 19C87.7014 19 87.6081 18.94 87.5547 18.82L85.1947 13.5C85.1681 13.4467 85.1281 13.42 85.0747 13.42H83.7547C83.6881 13.42 83.6547 13.4533 83.6547 13.52V18.76C83.6547 18.8267 83.6281 18.8867 83.5747 18.94C83.5347 18.98 83.4814 19 83.4147 19H80.5747C80.5081 19 80.4481 18.98 80.3947 18.94C80.3547 18.8867 80.3347 18.8267 80.3347 18.76V5.24C80.3347 5.17333 80.3547 5.12 80.3947 5.08C80.4481 5.02667 80.5081 5 80.5747 5H86.5147C87.3947 5 88.1681 5.18 88.8347 5.54C89.5014 5.9 90.0147 6.41333 90.3747 7.08C90.7481 7.73333 90.9347 8.48667 90.9347 9.34C90.9347 10.2333 90.7147 11.0067 90.2747 11.66C89.8347 12.3133 89.2214 12.7867 88.4347 13.08C88.3681 13.1067 88.3481 13.1533 88.3747 13.22L91.0147 18.72C91.0414 18.7733 91.0547 18.8133 91.0547 18.84C91.0547 18.9467 90.9814 19 90.8347 19H87.8347ZM83.7547 7.84C83.6881 7.84 83.6547 7.87333 83.6547 7.94V10.78C83.6547 10.8467 83.6881 10.88 83.7547 10.88H85.9747C86.4681 10.88 86.8681 10.7467 87.1747 10.48C87.4814 10.2 87.6347 9.83333 87.6347 9.38C87.6347 8.91333 87.4814 8.54 87.1747 8.26C86.8681 7.98 86.4681 7.84 85.9747 7.84H83.7547Z" fill="#14171A"/>
    <path d="M58.94 24C59.8467 24 60.6467 24.1867 61.34 24.56C62.0467 24.9333 62.5867 25.46 62.96 26.14C63.3467 26.8067 63.54 27.58 63.54 28.46C63.54 29.3267 63.34 30.0933 62.94 30.76C62.5534 31.4267 62 31.94 61.28 32.3C60.56 32.66 59.7267 32.84 58.78 32.84H56.34C56.2734 32.84 56.24 32.8733 56.24 32.94V37.76C56.24 37.8267 56.2134 37.8867 56.16 37.94C56.12 37.98 56.0667 38 56 38H53.16C53.0934 38 53.0334 37.98 52.98 37.94C52.94 37.8867 52.92 37.8267 52.92 37.76V24.24C52.92 24.1733 52.94 24.12 52.98 24.08C53.0334 24.0267 53.0934 24 53.16 24H58.94ZM58.4 30.2C58.9467 30.2 59.3867 30.0467 59.72 29.74C60.0667 29.4333 60.24 29.0333 60.24 28.54C60.24 28.0333 60.0667 27.6267 59.72 27.32C59.3867 27 58.9467 26.84 58.4 26.84H56.34C56.2734 26.84 56.24 26.8733 56.24 26.94V30.1C56.24 30.1667 56.2734 30.2 56.34 30.2H58.4Z" fill="#14171A"/>
    <path d="M72.0332 38C71.8998 38 71.8065 37.94 71.7532 37.82L69.3932 32.5C69.3665 32.4467 69.3265 32.42 69.2732 32.42H67.9532C67.8865 32.42 67.8532 32.4533 67.8532 32.52V37.76C67.8532 37.8267 67.8265 37.8867 67.7732 37.94C67.7332 37.98 67.6798 38 67.6132 38H64.7732C64.7065 38 64.6465 37.98 64.5932 37.94C64.5532 37.8867 64.5332 37.8267 64.5332 37.76V24.24C64.5332 24.1733 64.5532 24.12 64.5932 24.08C64.6465 24.0267 64.7065 24 64.7732 24H70.7132C71.5932 24 72.3665 24.18 73.0332 24.54C73.6998 24.9 74.2132 25.4133 74.5732 26.08C74.9465 26.7333 75.1332 27.4867 75.1332 28.34C75.1332 29.2333 74.9132 30.0067 74.4732 30.66C74.0332 31.3133 73.4198 31.7867 72.6332 32.08C72.5665 32.1067 72.5465 32.1533 72.5732 32.22L75.2132 37.72C75.2398 37.7733 75.2532 37.8133 75.2532 37.84C75.2532 37.9467 75.1798 38 75.0332 38H72.0332ZM67.9532 26.84C67.8865 26.84 67.8532 26.8733 67.8532 26.94V29.78C67.8532 29.8467 67.8865 29.88 67.9532 29.88H70.1732C70.6665 29.88 71.0665 29.7467 71.3732 29.48C71.6798 29.2 71.8332 28.8333 71.8332 28.38C71.8332 27.9133 71.6798 27.54 71.3732 27.26C71.0665 26.98 70.6665 26.84 70.1732 26.84H67.9532Z" fill="#14171A"/>
    <path d="M81.6383 38.22C80.5583 38.22 79.605 38.0067 78.7783 37.58C77.965 37.14 77.3317 36.5267 76.8783 35.74C76.425 34.9533 76.1983 34.04 76.1983 33V29C76.1983 27.9867 76.425 27.0933 76.8783 26.32C77.3317 25.5333 77.965 24.9267 78.7783 24.5C79.605 24.06 80.5583 23.84 81.6383 23.84C82.7183 23.84 83.6717 24.06 84.4983 24.5C85.325 24.9267 85.965 25.5333 86.4183 26.32C86.8717 27.0933 87.0983 27.9867 87.0983 29V33C87.0983 34.04 86.8717 34.9533 86.4183 35.74C85.965 36.5267 85.325 37.14 84.4983 37.58C83.6717 38.0067 82.7183 38.22 81.6383 38.22ZM81.6383 35.38C82.2783 35.38 82.7917 35.1733 83.1783 34.76C83.5783 34.3467 83.7783 33.7933 83.7783 33.1V28.96C83.7783 28.28 83.5783 27.7333 83.1783 27.32C82.7917 26.8933 82.2783 26.68 81.6383 26.68C81.0117 26.68 80.4983 26.8933 80.0983 27.32C79.7117 27.7333 79.5183 28.28 79.5183 28.96V33.1C79.5183 33.7933 79.7117 34.3467 80.0983 34.76C80.4983 35.1733 81.0117 35.38 81.6383 35.38Z" fill="#14171A"/>
    <path d="M98.4039 24C98.4706 24 98.5239 24.0267 98.5639 24.08C98.6173 24.12 98.644 24.1733 98.644 24.24V26.62C98.644 26.6867 98.6173 26.7467 98.5639 26.8C98.5239 26.84 98.4706 26.86 98.4039 26.86H94.904C94.8373 26.86 94.8039 26.8933 94.8039 26.96V37.76C94.8039 37.8267 94.7773 37.8867 94.724 37.94C94.684 37.98 94.6306 38 94.5639 38H91.724C91.6573 38 91.5973 37.98 91.544 37.94C91.504 37.8867 91.4839 37.8267 91.4839 37.76V26.96C91.4839 26.8933 91.4506 26.86 91.3839 26.86H88.004C87.9373 26.86 87.8773 26.84 87.824 26.8C87.784 26.7467 87.7639 26.6867 87.7639 26.62V24.24C87.7639 24.1733 87.784 24.12 87.824 24.08C87.8773 24.0267 87.9373 24 88.004 24H98.4039Z" fill="#14171A"/>
    <path d="M104.51 38.22C103.43 38.22 102.477 38.0067 101.65 37.58C100.837 37.14 100.204 36.5267 99.7502 35.74C99.2969 34.9533 99.0702 34.04 99.0702 33V29C99.0702 27.9867 99.2969 27.0933 99.7502 26.32C100.204 25.5333 100.837 24.9267 101.65 24.5C102.477 24.06 103.43 23.84 104.51 23.84C105.59 23.84 106.544 24.06 107.37 24.5C108.197 24.9267 108.837 25.5333 109.29 26.32C109.744 27.0933 109.97 27.9867 109.97 29V33C109.97 34.04 109.744 34.9533 109.29 35.74C108.837 36.5267 108.197 37.14 107.37 37.58C106.544 38.0067 105.59 38.22 104.51 38.22ZM104.51 35.38C105.15 35.38 105.664 35.1733 106.05 34.76C106.45 34.3467 106.65 33.7933 106.65 33.1V28.96C106.65 28.28 106.45 27.7333 106.05 27.32C105.664 26.8933 105.15 26.68 104.51 26.68C103.884 26.68 103.37 26.8933 102.97 27.32C102.584 27.7333 102.39 28.28 102.39 28.96V33.1C102.39 33.7933 102.584 34.3467 102.97 34.76C103.37 35.1733 103.884 35.38 104.51 35.38Z" fill="#14171A"/>
    <path d="M116.452 38.16C115.385 38.16 114.445 37.9533 113.632 37.54C112.832 37.1267 112.205 36.54 111.752 35.78C111.312 35.02 111.092 34.14 111.092 33.14V28.82C111.092 27.8333 111.312 26.9667 111.752 26.22C112.205 25.46 112.832 24.8733 113.632 24.46C114.445 24.0467 115.385 23.84 116.452 23.84C117.519 23.84 118.452 24.04 119.252 24.44C120.065 24.8267 120.692 25.38 121.132 26.1C121.585 26.8067 121.812 27.6267 121.812 28.56C121.812 28.6267 121.785 28.68 121.732 28.72C121.692 28.76 121.639 28.78 121.572 28.78L118.732 28.96C118.572 28.96 118.492 28.8867 118.492 28.74C118.492 28.1133 118.305 27.6133 117.932 27.24C117.559 26.8667 117.065 26.68 116.452 26.68C115.839 26.68 115.345 26.8733 114.972 27.26C114.599 27.6333 114.412 28.1267 114.412 28.74V33.28C114.412 33.8933 114.599 34.3867 114.972 34.76C115.345 35.1333 115.839 35.32 116.452 35.32C117.065 35.32 117.559 35.1333 117.932 34.76C118.305 34.3867 118.492 33.8933 118.492 33.28C118.492 33.1333 118.572 33.06 118.732 33.06L121.572 33.2C121.639 33.2 121.692 33.22 121.732 33.26C121.785 33.3 121.812 33.3467 121.812 33.4C121.812 34.3467 121.585 35.18 121.132 35.9C120.692 36.62 120.065 37.18 119.252 37.58C118.452 37.9667 117.519 38.16 116.452 38.16Z" fill="#14171A"/>
    <path d="M128.32 38.22C127.24 38.22 126.286 38.0067 125.46 37.58C124.646 37.14 124.013 36.5267 123.56 35.74C123.106 34.9533 122.88 34.04 122.88 33V29C122.88 27.9867 123.106 27.0933 123.56 26.32C124.013 25.5333 124.646 24.9267 125.46 24.5C126.286 24.06 127.24 23.84 128.32 23.84C129.4 23.84 130.353 24.06 131.18 24.5C132.006 24.9267 132.646 25.5333 133.1 26.32C133.553 27.0933 133.78 27.9867 133.78 29V33C133.78 34.04 133.553 34.9533 133.1 35.74C132.646 36.5267 132.006 37.14 131.18 37.58C130.353 38.0067 129.4 38.22 128.32 38.22ZM128.32 35.38C128.96 35.38 129.473 35.1733 129.86 34.76C130.26 34.3467 130.46 33.7933 130.46 33.1V28.96C130.46 28.28 130.26 27.7333 129.86 27.32C129.473 26.8933 128.96 26.68 128.32 26.68C127.693 26.68 127.18 26.8933 126.78 27.32C126.393 27.7333 126.2 28.28 126.2 28.96V33.1C126.2 33.7933 126.393 34.3467 126.78 34.76C127.18 35.1733 127.693 35.38 128.32 35.38Z" fill="#14171A"/>
    <path d="M135.361 38C135.295 38 135.235 37.98 135.181 37.94C135.141 37.8867 135.121 37.8267 135.121 37.76V24.24C135.121 24.1733 135.141 24.12 135.181 24.08C135.235 24.0267 135.295 24 135.361 24H138.201C138.268 24 138.321 24.0267 138.361 24.08C138.415 24.12 138.441 24.1733 138.441 24.24V35.06C138.441 35.1267 138.475 35.16 138.541 35.16H144.921C144.988 35.16 145.041 35.1867 145.081 35.24C145.135 35.28 145.161 35.3333 145.161 35.4V37.76C145.161 37.8267 145.135 37.8867 145.081 37.94C145.041 37.98 144.988 38 144.921 38H135.361Z" fill="#14171A"/>
    <defs>
        <radialGradient id="paint0_radial_57_3218" cx="0" cy="0" r="1" gradientUnits="userSpaceOnUse" gradientTransform="translate(17.5 17.5) rotate(45) scale(25.4558)">
            <stop offset="0.697917" stop-color="#0066FF"/>
            <stop offset="1" stop-color="#5CF5A9"/>
        </radialGradient>
    </defs>
</svg>
