<svg width="16" height="16" viewBox="0 0 16 16" fill="none" xmlns="http://www.w3.org/2000/svg">
    <rect x="1.25" y="7.25" width="13.5" height="1.5" fill="white"/>
    <rect x="11.75" y="8.75" width="1.5" height="1.5" fill="white"/>
    <rect x="10.25" y="10.25" width="1.5" height="1.5" fill="white"/>
    <rect x="8.75" y="11.75" width="1.5" height="1.5" fill="white"/>
    <rect x="7.25" y="13.25" width="1.5" height="1.5" fill="white"/>
    <rect x="11.75" y="5.75" width="1.5" height="1.5" fill="white"/>
    <rect x="10.25" y="4.25" width="1.5" height="1.5" fill="white"/>
    <rect x="10.25" y="5.75" width="1.5" height="1.5" fill="#DCEAFF"/>
    <rect x="10.25" y="8.75" width="1.5" height="1.5" fill="#DCEAFF"/>
    <rect x="8.75" y="10.25" width="1.5" height="1.5" fill="#DCEAFF"/>
    <rect x="7.25" y="11.75" width="1.5" height="1.5" fill="#DCEAFF"/>
    <rect x="8.75" y="2.75" width="1.5" height="1.5" fill="white"/>
    <rect x="8.75" y="4.25" width="1.5" height="1.5" fill="#DCEAFF"/>
    <rect x="7.25" y="1.25" width="1.5" height="1.5" fill="white"/>
    <rect x="7.25" y="2.75" width="1.5" height="1.5" fill="#DCEAFF"/>
</svg>
