<svg width="64" height="64" viewBox="0 0 64 64" fill="none" xmlns="http://www.w3.org/2000/svg">
    <path fill-rule="evenodd" clip-rule="evenodd" d="M38.5163 20.8504C38.5163 12.5225 34.461 5.36148 31.3759 3.02888C31.3634 3.02198 31.1399 2.89643 31.1588 3.22912C31.1588 3.23352 31.155 3.2354 31.155 3.23917C30.8977 19.3188 22.686 23.6764 18.1713 29.5468C7.75245 43.0936 17.4421 57.9466 27.3093 60.6916C32.83 62.2276 26.0341 57.9742 25.1586 48.9897C24.1005 38.1296 38.5163 29.8399 38.5163 20.8504Z" fill="#1D2243"/>
    <path fill-rule="evenodd" clip-rule="evenodd" d="M43.2506 26.3243C43.1872 26.2817 43.0975 26.2522 43.0353 26.3545C42.8659 28.3789 40.7987 32.7082 38.1786 36.6842C29.2929 50.1694 34.3567 56.6695 37.2046 60.1614C38.8576 62.1883 37.2046 60.1614 41.3365 58.09C41.6603 57.9274 49.3995 53.5861 50.2379 43.6945C51.0493 34.1162 45.2977 28.0782 43.2506 26.3243Z" fill="#0155FF"/>
</svg>
