<svg width="17" height="16" viewBox="0 0 17 16" fill="none" xmlns="http://www.w3.org/2000/svg">
    <rect x="1.75" y="7.25" width="13.5" height="1.5" fill="#0066FF"/>
    <rect x="12.25" y="8.75" width="1.5" height="1.5" fill="#0066FF"/>
    <rect x="10.75" y="10.25" width="1.5" height="1.5" fill="#0066FF"/>
    <rect x="9.25" y="11.75" width="1.5" height="1.5" fill="#0066FF"/>
    <rect x="7.75" y="13.25" width="1.5" height="1.5" fill="#0066FF"/>
    <rect x="12.25" y="5.75" width="1.5" height="1.5" fill="#0066FF"/>
    <rect x="10.75" y="4.25" width="1.5" height="1.5" fill="#0066FF"/>
    <rect x="10.75" y="5.75" width="1.5" height="1.5" fill="#80B2FF"/>
    <rect x="10.75" y="8.75" width="1.5" height="1.5" fill="#80B2FF"/>
    <rect x="9.25" y="10.25" width="1.5" height="1.5" fill="#80B2FF"/>
    <rect x="7.75" y="11.75" width="1.5" height="1.5" fill="#80B2FF"/>
    <rect x="9.25" y="2.75" width="1.5" height="1.5" fill="#0066FF"/>
    <rect x="9.25" y="4.25" width="1.5" height="1.5" fill="#80B2FF"/>
    <rect x="7.75" y="1.25" width="1.5" height="1.5" fill="#0066FF"/>
    <rect x="7.75" y="2.75" width="1.5" height="1.5" fill="#80B2FF"/>
</svg>
