<svg width="64" height="64" viewBox="0 0 64 64" fill="none" xmlns="http://www.w3.org/2000/svg">
    <path d="M28.8789 28.8782C30.9303 29.3805 33.0725 29.3805 35.1239 28.8782C35.6971 26.5471 36.8976 24.4174 38.595 22.72C40.2925 21.0226 42.4222 19.8222 44.7534 19.249C45.2259 17.3166 45.253 15.3021 44.8328 13.3577C44.4125 11.4133 43.5559 9.58983 42.3276 8.02503C41.0992 6.46024 39.5313 5.19504 37.7423 4.32503C35.9533 3.45501 33.99 3.00293 32.0007 3.00293C30.0113 3.00293 28.048 3.45501 26.259 4.32503C24.47 5.19504 22.9021 6.46024 21.6738 8.02503C20.4455 9.58983 19.5888 11.4133 19.1686 13.3577C18.7483 15.3021 18.7755 17.3166 19.248 19.249C21.5796 19.8215 23.7099 21.0217 25.4077 22.7192C27.1055 24.4167 28.306 26.5467 28.8789 28.8782Z" fill="#7ABDF7"/>
    <path d="M35.1239 35.1203C33.0726 34.618 30.9303 34.618 28.8789 35.1203C28.3057 37.4513 27.1053 39.581 25.4078 41.2785C23.7103 42.9759 21.5806 44.1763 19.2494 44.7495C18.777 46.6819 18.7498 48.6964 19.1701 50.6408C19.5903 52.5852 20.4469 54.4086 21.6753 55.9734C22.9036 57.5382 24.4715 58.8034 26.2605 59.6734C28.0495 60.5435 30.0128 60.9955 32.0021 60.9955C33.9915 60.9955 35.9548 60.5435 37.7438 59.6734C39.5328 58.8034 41.1007 57.5382 42.329 55.9734C43.5574 54.4086 44.414 52.5852 44.8342 50.6408C45.2545 48.6964 45.2273 46.6819 44.7549 44.7495C42.4232 44.177 40.293 42.9768 38.5951 41.2793C36.8973 39.5818 35.6968 37.4517 35.1239 35.1203Z" fill="#0D74F5"/>
    <path d="M47.8758 18.8712C46.8242 18.871 45.7763 18.9974 44.7548 19.2475C44.1822 21.5785 42.9821 23.7082 41.2848 25.4055C39.5875 27.1027 37.4578 28.3027 35.1267 28.8754C34.6244 30.9267 34.6244 33.0689 35.1267 35.1202C37.4578 35.6932 39.5875 36.8936 41.2848 38.591C42.982 40.2885 44.1821 42.4183 44.7548 44.7494C46.558 45.1899 48.4341 45.2429 50.2593 44.9051C52.0845 44.5673 53.8173 43.8462 55.3434 42.7896C56.8695 41.7329 58.1542 40.3647 59.1126 38.7751C60.0711 37.1856 60.6816 35.4108 60.9038 33.568C61.126 31.7252 60.955 29.8562 60.4018 28.0844C59.8487 26.3125 58.9261 24.6781 57.695 23.289C56.4639 21.8999 54.9521 20.7876 53.2595 20.0256C51.567 19.2636 49.732 18.8691 47.8758 18.8683V18.8712Z" fill="#4494F7"/>
    <path d="M28.8789 35.1202C29.3812 33.0689 29.3812 30.9267 28.8789 28.8754C26.5477 28.3027 24.4178 27.1027 22.7203 25.4055C21.0228 23.7082 19.8224 21.5786 19.2494 19.2476C17.3169 18.7751 15.3024 18.748 13.358 19.1682C11.4135 19.5884 9.58999 20.4451 8.02516 21.6734C6.46033 22.9017 5.1951 24.4695 4.32506 26.2585C3.45502 28.0474 3.00293 30.0107 3.00293 32C3.00293 33.9893 3.45502 35.9526 4.32506 37.7415C5.1951 39.5305 6.46033 41.0983 8.02516 42.3266C9.58999 43.5549 11.4135 44.4115 13.358 44.8317C15.3024 45.252 17.3169 45.2248 19.2494 44.7524C19.8218 42.4206 21.022 40.2902 22.7195 38.5921C24.4171 36.8941 26.5472 35.6934 28.8789 35.1202Z" fill="#005CF4"/>
    <path d="M35.1238 28.8783C37.4549 28.305 39.5847 27.1046 41.2821 25.4072C42.9796 23.7098 44.18 21.5801 44.7533 19.249C42.4221 19.8223 40.2924 21.0226 38.5949 22.7201C36.8975 24.4175 35.697 26.5472 35.1238 28.8783Z" fill="#186EF9"/>
    <path d="M35.1238 35.1202C35.6966 37.4515 36.8969 39.5815 38.5944 41.279C40.2919 42.9765 42.4219 44.1767 44.7533 44.7495C44.18 42.4184 42.9796 40.2887 41.2821 38.5913C39.5847 36.8939 37.4549 35.6935 35.1238 35.1202Z" fill="#0246F2"/>
    <path d="M28.879 28.8783C28.3058 26.5472 27.1053 24.4175 25.4079 22.7201C23.7104 21.0226 21.5806 19.8223 19.2495 19.249C19.8228 21.5801 21.0232 23.7098 22.7207 25.4072C24.4181 27.1046 26.5479 28.305 28.879 28.8783Z" fill="#0046F8"/>
    <path d="M28.879 35.1202C26.5479 35.6935 24.4181 36.8939 22.7207 38.5913C21.0232 40.2887 19.8228 42.4184 19.2495 44.7495C21.5806 44.1763 23.7104 42.9759 25.4079 41.2784C27.1053 39.581 28.3058 37.4513 28.879 35.1202Z" fill="#0729F1"/>
    <path d="M28.8789 28.8782C30.9303 29.3805 33.0725 29.3805 35.1239 28.8782C35.6971 26.5471 36.8976 24.4174 38.595 22.72C40.2925 21.0226 42.4222 19.8222 44.7534 19.249C45.2259 17.3166 45.253 15.3021 44.8328 13.3577C44.4125 11.4133 43.5559 9.58983 42.3276 8.02503C41.0992 6.46024 39.5313 5.19504 37.7423 4.32503C35.9533 3.45501 33.99 3.00293 32.0007 3.00293C30.0113 3.00293 28.048 3.45501 26.259 4.32503C24.47 5.19504 22.9021 6.46024 21.6738 8.02503C20.4455 9.58983 19.5888 11.4133 19.1686 13.3577C18.7483 15.3021 18.7755 17.3166 19.248 19.249C21.5796 19.8215 23.7099 21.0217 25.4077 22.7192C27.1055 24.4167 28.306 26.5467 28.8789 28.8782Z" fill="#7ABDF7"/>
    <path d="M35.1239 35.1203C33.0726 34.618 30.9303 34.618 28.8789 35.1203C28.3057 37.4513 27.1053 39.581 25.4078 41.2785C23.7103 42.9759 21.5806 44.1763 19.2494 44.7495C18.777 46.6819 18.7498 48.6964 19.1701 50.6408C19.5903 52.5852 20.4469 54.4086 21.6753 55.9734C22.9036 57.5382 24.4715 58.8034 26.2605 59.6734C28.0495 60.5435 30.0128 60.9955 32.0021 60.9955C33.9915 60.9955 35.9548 60.5435 37.7438 59.6734C39.5328 58.8034 41.1007 57.5382 42.329 55.9734C43.5574 54.4086 44.414 52.5852 44.8342 50.6408C45.2545 48.6964 45.2273 46.6819 44.7549 44.7495C42.4232 44.177 40.293 42.9768 38.5951 41.2793C36.8973 39.5818 35.6968 37.4517 35.1239 35.1203Z" fill="#0D74F5"/>
    <path d="M47.8758 18.8712C46.8242 18.871 45.7763 18.9974 44.7548 19.2475C44.1822 21.5785 42.9821 23.7082 41.2848 25.4055C39.5875 27.1027 37.4578 28.3027 35.1267 28.8754C34.6244 30.9267 34.6244 33.0689 35.1267 35.1202C37.4578 35.6932 39.5875 36.8936 41.2848 38.591C42.982 40.2885 44.1821 42.4183 44.7548 44.7494C46.558 45.1899 48.4341 45.2429 50.2593 44.9051C52.0845 44.5673 53.8173 43.8462 55.3434 42.7896C56.8695 41.7329 58.1542 40.3647 59.1126 38.7751C60.0711 37.1856 60.6816 35.4108 60.9038 33.568C61.126 31.7252 60.955 29.8562 60.4018 28.0844C59.8487 26.3125 58.9261 24.6781 57.695 23.289C56.4639 21.8999 54.9521 20.7876 53.2595 20.0256C51.567 19.2636 49.732 18.8691 47.8758 18.8683V18.8712Z" fill="#4494F7"/>
    <path d="M28.8789 35.1202C29.3812 33.0689 29.3812 30.9267 28.8789 28.8754C26.5477 28.3027 24.4178 27.1027 22.7203 25.4055C21.0228 23.7082 19.8224 21.5786 19.2494 19.2476C17.3169 18.7751 15.3024 18.748 13.358 19.1682C11.4135 19.5884 9.58999 20.4451 8.02516 21.6734C6.46033 22.9017 5.1951 24.4695 4.32506 26.2585C3.45502 28.0474 3.00293 30.0107 3.00293 32C3.00293 33.9893 3.45502 35.9526 4.32506 37.7415C5.1951 39.5305 6.46033 41.0983 8.02516 42.3266C9.58999 43.5549 11.4135 44.4115 13.358 44.8317C15.3024 45.252 17.3169 45.2248 19.2494 44.7524C19.8218 42.4206 21.022 40.2902 22.7195 38.5921C24.4171 36.8941 26.5472 35.6934 28.8789 35.1202Z" fill="#005CF4"/>
    <path d="M35.1238 28.8783C37.4549 28.305 39.5847 27.1046 41.2821 25.4072C42.9796 23.7098 44.18 21.5801 44.7533 19.249C42.4221 19.8223 40.2924 21.0226 38.5949 22.7201C36.8975 24.4175 35.697 26.5472 35.1238 28.8783Z" fill="#186EF9"/>
    <path d="M35.1238 35.1202C35.6966 37.4515 36.8969 39.5815 38.5944 41.279C40.2919 42.9765 42.4219 44.1767 44.7533 44.7495C44.18 42.4184 42.9796 40.2887 41.2821 38.5913C39.5847 36.8939 37.4549 35.6935 35.1238 35.1202Z" fill="#0246F2"/>
    <path d="M28.879 28.8783C28.3058 26.5472 27.1053 24.4175 25.4079 22.7201C23.7104 21.0226 21.5806 19.8223 19.2495 19.249C19.8228 21.5801 21.0232 23.7098 22.7207 25.4072C24.4181 27.1046 26.5479 28.305 28.879 28.8783Z" fill="#0046F8"/>
    <path d="M28.879 35.1202C26.5479 35.6935 24.4181 36.8939 22.7207 38.5913C21.0232 40.2887 19.8228 42.4184 19.2495 44.7495C21.5806 44.1763 23.7104 42.9759 25.4079 41.2784C27.1053 39.581 28.3058 37.4513 28.879 35.1202Z" fill="#0729F1"/>
</svg>
