<svg width="64" height="64" viewBox="0 0 64 64" fill="none" xmlns="http://www.w3.org/2000/svg">
    <path fill-rule="evenodd" clip-rule="evenodd" d="M6.9881 4.26175C13.7616 12.7657 24.2123 25.9883 24.725 26.6932C25.1656 27.2981 24.9854 27.8709 24.2644 28.2955C23.75 28.566 23.1856 28.7282 22.606 28.7722C22.0777 28.7451 21.5788 28.5207 21.2081 28.1433C20.9477 27.8749 19.8101 26.1645 17.2545 22.0387C15.3038 18.8823 13.6494 16.2706 13.6254 16.2386C14.6074 18.4822 15.7521 20.651 17.0502 22.7277C18.1566 24.5872 19.1466 26.5137 20.0144 28.4958C20.0144 28.8964 19.9023 29.1006 19.4296 29.6374C18.5361 30.8012 18.0455 32.224 18.0316 33.6911C17.664 36.2801 16.5073 38.6929 14.7189 40.6008C13.9918 41.41 13.3737 42.311 12.8804 43.2806C12.5008 44.0252 12.3006 44.8482 12.2955 45.6839C12.2355 46.6834 12.3716 47.6849 12.6961 48.6321C13.0113 49.6433 13.483 50.5989 14.0941 51.4641C14.5719 52.1287 14.9335 52.8696 15.1636 53.6551C15.1636 53.8995 15.2197 53.8995 16.2691 53.6551C18.4062 53.2572 20.3843 52.2549 21.9691 50.7671C22.2798 50.4789 22.5198 50.123 22.6706 49.7271C22.8213 49.3311 22.8787 48.9056 22.8384 48.4839C22.8769 48.0541 22.8066 47.6216 22.634 47.2261C22.1564 46.3707 21.4506 45.6648 20.5952 45.1872C19.9843 44.8619 19.4523 44.4062 19.0369 43.8524C18.6216 43.2986 18.3331 42.6604 18.1918 41.9827C18.0923 40.715 18.4087 39.4494 19.0931 38.3777C19.873 36.9093 20.3125 35.2843 20.3789 33.623C20.471 32.3652 20.6152 31.8525 20.9637 31.4559C21.1674 31.235 21.4154 31.0595 21.6914 30.9408C21.9675 30.822 22.2655 30.7628 22.5659 30.767C23.7562 30.693 24.8861 30.2171 25.7705 29.4171C26.084 29.1449 26.3351 28.8082 26.5065 28.4301C26.678 28.0519 26.7658 27.6412 26.7639 27.226L26.7959 26.537L26.3954 26.1365C25.0214 24.5342 6.10285 3 6.01072 3C5.95716 3 6.10938 3.18276 6.35483 3.47745C6.53159 3.68965 6.75669 3.95991 6.9881 4.26175ZM15.9126 47.0058C16.0635 46.7296 16.106 46.4071 16.0319 46.1012C15.9579 45.7954 15.7725 45.5281 15.512 45.3515C15.0153 45.027 14.2623 45.1752 14.2623 45.6198C14.2613 45.6899 14.2841 45.7582 14.3271 45.8135C14.37 45.8688 14.4305 45.9079 14.4987 45.9243C14.759 46.0765 14.7911 46.2287 14.5868 46.5531C14.5349 46.6115 14.4952 46.6796 14.4699 46.7535C14.4446 46.8274 14.4343 46.9056 14.4395 46.9835C14.4448 47.0614 14.4654 47.1375 14.5003 47.2073C14.5352 47.2772 14.5837 47.3394 14.6428 47.3903C15.0674 47.7268 15.6202 47.5425 15.9126 47.0058Z" fill="#FF0C7A"/>
    <path d="M26.632 17.4565C26.0231 17.3683 25.9911 17.3443 26.2835 17.3083C27.2034 17.2548 28.1262 17.3344 29.0233 17.5446C31.3894 18.218 33.4833 19.6195 35.0078 21.5502L35.5245 22.1591L36.2775 22.0469C39.4274 21.5156 42.6639 21.9195 45.5866 23.2086C46.3216 23.5414 47.0231 23.9438 47.6816 24.4102C47.7884 24.6659 47.8572 24.9358 47.8858 25.2114C48.1294 26.2724 48.0182 27.384 47.5693 28.3758C47.4632 28.5055 47.3979 28.6637 47.3815 28.8305C47.3651 28.9973 47.3984 29.1653 47.4773 29.3132C47.5489 29.4642 47.6626 29.5914 47.8047 29.6795C47.9467 29.7676 48.1112 29.8128 48.2783 29.8098C48.9753 29.8098 49.6964 28.7043 50.0489 27.1621L50.193 26.5533L50.4534 26.8457C51.8908 28.4073 52.8621 30.3402 53.2574 32.4255L53.3135 32.8661L53.0531 32.4655C52.6923 31.8808 52.2167 31.3754 51.6552 30.9795C50.1814 30.1929 48.5143 29.8414 46.8484 29.966C45.047 29.9418 43.2574 29.6723 41.5289 29.1649C39.1255 28.3638 37.9238 27.3624 35.1199 23.6091C34.2743 22.4325 33.3367 21.3248 32.316 20.2965C30.7947 18.7407 28.8022 17.7311 26.648 17.4244L26.632 17.4565Z" fill="#FF0C7A"/>
    <path d="M48.29 21.1416C48.2906 20.282 48.4664 19.4315 48.8067 18.6421C48.8727 18.4664 48.9601 18.2996 49.0671 18.1454C49.0991 18.1454 49.0351 18.3497 48.955 18.586C48.7164 19.4185 48.678 20.2955 48.8427 21.1456C49.047 22.4514 49.1351 22.6317 50.5331 24.0537C51.174 24.7186 51.9311 25.5638 52.2235 25.9123L52.7203 26.5532L52.2235 26.0925C51.5019 25.4157 50.7248 24.8007 49.9003 24.2539C49.696 24.1418 49.6639 24.1418 49.4997 24.286C49.353 24.4148 49.3534 24.5468 49.3551 25.1757C49.3553 25.251 49.3556 25.3333 49.3556 25.4236C49.3887 26.4493 49.1686 27.4674 48.7146 28.3877C48.4783 28.8284 48.4542 28.7363 48.6585 28.2396C48.8427 27.6576 48.9 27.043 48.8267 26.437C48.8267 23.9135 48.5344 23.2926 46.7639 22.2792C46.3233 22.0188 45.5622 21.6383 45.1416 21.434C44.8664 21.3176 44.5987 21.1838 44.3405 21.0334C45.1752 21.1988 45.9931 21.4402 46.784 21.7545C47.7974 22.155 47.9856 22.195 48.0897 22.155C48.1939 22.1149 48.2259 21.8506 48.2579 21.1176L48.29 21.1416Z" fill="#FF0C7A"/>
    <path d="M25.9868 19.2271C25.9106 21.4549 26.5554 23.6478 27.8253 25.4798C28.6607 26.7045 29.9212 27.5753 31.3623 27.9232C32.0833 27.9793 32.2876 27.743 31.9712 27.2823C31.5067 26.6297 31.117 25.927 30.8095 25.1874C30.7174 24.927 30.5171 24.1139 30.3689 23.4169C29.8842 21.0295 29.3555 20.0682 28.1938 19.3712C27.61 19.0531 26.9844 18.8185 26.3353 18.6743L26.0428 18.6182L25.9868 19.2271Z" fill="#FF0C7A"/>
    <path d="M46.804 38.1215C41.0479 35.7982 39.0171 33.7954 39.0171 30.3906C39.0171 29.8939 39.0491 29.4894 39.0491 29.4894C39.2263 29.6078 39.3925 29.7418 39.5458 29.8899C41.3661 31.0728 43.4837 31.7171 45.6543 31.7485C47.1636 31.9223 48.6535 32.236 50.1047 32.6858C51.6828 33.0979 53.1087 33.9558 54.2119 35.1571C55.3151 36.3583 56.0488 37.852 56.3253 39.4594C56.4555 40.6705 56.3988 41.8945 56.1571 43.0884C55.9571 43.8311 55.6421 44.538 55.2238 45.1834C55.1918 45.1834 55.1357 45.0352 55.1357 44.7828C55.0898 44.1491 54.9165 43.5312 54.626 42.9661C54.3356 42.401 53.934 41.9003 53.4453 41.4942C51.4238 40.0292 49.1839 38.8923 46.8081 38.1255L46.804 38.1215Z" fill="#FF0C7A"/>
    <path d="M42.4458 37.8812C42.583 38.271 42.681 38.6736 42.7382 39.0829C42.9939 40.3698 42.7344 41.7057 42.0153 42.8031C41.2961 43.9006 40.1748 44.6719 38.8928 44.9511C38.0414 45.1806 37.1756 45.3533 36.3012 45.4679C34.7987 45.6424 33.3294 46.0337 31.9391 46.6295C31.377 46.8679 30.8501 47.1819 30.3729 47.5628C30.5112 47.5589 30.6473 47.5276 30.7734 47.4707C32.3744 46.9633 34.0411 46.6933 35.7204 46.6695C36.5856 46.6134 37.579 46.5334 37.9275 46.5013C39.5605 46.3919 41.1036 45.7145 42.2896 44.5866C42.827 44.0313 43.2371 43.3657 43.4913 42.6359C43.6683 42.1339 43.7379 41.6003 43.6956 41.0697C43.7526 40.5204 43.6828 39.9654 43.4913 39.4474C43.2883 38.8307 42.9718 38.2574 42.558 37.757L42.2976 37.4406L42.4458 37.8812Z" fill="#FF0C7A"/>
    <path d="M45.386 43.7696C44.6483 42.314 44.4647 40.6399 44.8693 39.059C44.9254 38.9108 44.9814 38.7666 45.0375 38.7666C45.182 38.8106 45.3177 38.8797 45.4381 38.9709C45.7866 39.2072 46.5076 39.6118 48.3783 40.6292C50.1255 41.4514 51.6945 42.6081 52.9967 44.0339C53.8172 45.0465 54.3499 46.2614 54.5389 47.5509C54.6642 48.7054 54.6143 49.8722 54.3907 51.0118C54.1194 52.185 53.6039 53.288 52.8779 54.2487C52.1518 55.2094 51.2315 56.0063 50.1768 56.5876C49.9804 56.6981 49.777 56.7958 49.5679 56.88C49.6279 56.6564 49.7154 56.4412 49.8283 56.2391C50.1738 55.5445 50.375 54.7871 50.4197 54.0126C50.4645 53.2381 50.3518 52.4626 50.0887 51.7328C49.4978 50.2428 48.7183 48.8347 47.7694 47.5429C46.863 46.3582 46.0589 45.0986 45.366 43.7776L45.386 43.7696Z" fill="#FF0C7A"/>
    <path d="M30.962 49.1688C28.2919 49.696 25.8013 50.8985 23.7279 52.6617L23.095 53.2465L23.6477 53.3387C24.757 53.3892 25.8423 53.6779 26.83 54.1852C27.8177 54.6925 28.6846 55.4066 29.3718 56.2789C29.9986 57.1153 30.8868 57.7186 31.8954 57.9932C32.5433 58.1947 33.2433 58.1456 33.8568 57.8555C34.4703 57.5655 34.9525 57.0557 35.208 56.427C35.4109 55.7824 35.3911 55.0883 35.1519 54.4562C35.007 54.1916 34.8068 53.9614 34.5649 53.7812C34.323 53.601 34.045 53.475 33.75 53.4119C33.455 53.3488 33.1499 53.35 32.8554 53.4155C32.5609 53.4809 32.284 53.6092 32.0435 53.7914C31.8858 53.9163 31.7661 54.0827 31.6979 54.272C31.6296 54.4613 31.6154 54.6658 31.657 54.8627C31.6987 55.0595 31.7944 55.2409 31.9334 55.3864C32.0725 55.5318 32.2493 55.6355 32.4441 55.686C32.6244 55.706 32.6243 55.706 32.388 55.5938C32.2207 55.5395 32.0759 55.4316 31.976 55.2869C31.8761 55.1421 31.8267 54.9685 31.8353 54.7928C31.7992 53.8915 32.8166 53.4348 33.75 53.8354C34.046 53.9293 34.3016 54.1204 34.4753 54.3777C34.6491 54.6351 34.7309 54.9437 34.7073 55.2534C34.7088 55.5066 34.6561 55.7572 34.5528 55.9884C34.4494 56.2196 34.2978 56.4259 34.1081 56.5936C33.9184 56.7613 33.6949 56.8865 33.4528 56.9607C33.2107 57.0349 32.9556 57.0564 32.7045 57.0238C32.0721 56.9248 31.4904 56.6192 31.0501 56.1547C30.8312 55.8974 30.6749 55.5928 30.5934 55.265C30.5119 54.9371 30.5074 54.5949 30.5804 54.265C30.6534 53.9352 30.8017 53.6268 31.0139 53.3639C31.226 53.101 31.4962 52.8908 31.8032 52.7499C32.3526 52.5166 32.9512 52.4235 33.5455 52.4787C34.1398 52.5339 34.711 52.7359 35.208 53.0663C36.5384 53.991 37.5068 55.3486 37.9478 56.9077C38.2272 57.565 38.547 58.2044 38.9052 58.8223C39.256 59.4627 39.7679 60.0003 40.3904 60.3818C41.0129 60.7633 41.7243 60.9755 42.4541 60.9974C43.1844 61.0237 43.9083 60.8521 44.5491 60.5007C45.0115 60.2936 45.4344 60.0076 45.7989 59.6555C45.6279 59.6847 45.4612 59.7344 45.3022 59.8037C44.6732 60.103 43.9822 60.2488 43.2859 60.2293C42.5896 60.2099 41.9078 60.0256 41.2966 59.6916C40.6154 59.0966 40.161 58.2842 40.0107 57.3924C39.9786 57.2241 39.8304 56.423 39.7183 55.6219C39.5958 54.2153 39.1355 52.859 38.3764 51.6684C37.465 50.4836 36.1713 49.6513 34.7153 49.313C33.4818 49.0496 32.2121 49.0008 30.962 49.1688Z" fill="#FF0C7A"/>
    <path fill-rule="evenodd" clip-rule="evenodd" d="M27.3582 31.8054C27.6304 31.5075 27.9688 31.2779 28.3462 31.1353C28.9492 31.0022 29.5787 31.0582 30.1488 31.2956C30.5472 31.4792 30.8831 31.7754 31.1151 32.1477C31.3472 32.5199 31.4651 32.952 31.4546 33.3905C31.3104 34.2357 29.9485 34.9326 28.3462 34.9326C27.5371 34.9326 27.2448 34.8165 26.9283 34.4159C26.7133 33.923 26.6613 33.3743 26.78 32.8498C26.8881 32.4611 27.0861 32.1033 27.3582 31.8054ZM29.9125 31.596C30.3531 31.8684 30.4412 32.2409 30.2049 32.5894C29.9201 32.8704 29.5428 33.0384 29.1433 33.062C28.5505 33.062 27.9417 32.6615 27.9417 32.2609C27.9417 31.5039 29.1114 31.0993 29.9125 31.596Z" fill="#FF0C7A"/>
</svg>
